<?xml version="1.0" encoding="UTF-8" standalone="no"?>
<!-- Created with Inkscape (http://www.inkscape.org/) -->

<svg
   width="87.164955mm"
   height="87.164955mm"
   viewBox="0 0 87.164955 87.164955"
   version="1.1"
   id="svg5"
   inkscape:version="1.1.1 (c3084ef, 2021-09-22)"
   sodipodi:docname="logo.svg"
   inkscape:export-filename="/Users/ttg/dev/Genstone/brand/logo64x64.png"
   inkscape:export-xdpi="37.299393"
   inkscape:export-ydpi="37.299393"
   xmlns:inkscape="http://www.inkscape.org/namespaces/inkscape"
   xmlns:sodipodi="http://sodipodi.sourceforge.net/DTD/sodipodi-0.dtd"
   xmlns="http://www.w3.org/2000/svg"
   xmlns:svg="http://www.w3.org/2000/svg">
  <sodipodi:namedview
     id="namedview7"
     pagecolor="#505050"
     bordercolor="#ffffff"
     borderopacity="1"
     inkscape:pageshadow="0"
     inkscape:pageopacity="0"
     inkscape:pagecheckerboard="1"
     inkscape:document-units="mm"
     showgrid="false"
     inkscape:zoom="1.52684"
     inkscape:cx="162.75445"
     inkscape:cy="152.60276"
     inkscape:window-width="1280"
     inkscape:window-height="778"
     inkscape:window-x="0"
     inkscape:window-y="0"
     inkscape:window-maximized="0"
     inkscape:current-layer="layer1" />
  <defs
     id="defs2" />
  <g
     inkscape:label="Layer 1"
     inkscape:groupmode="layer"
     id="layer1"
     transform="translate(17.009468,-101.37933)">
    <path
       style="fill:none;stroke:#000000;stroke-width:0.264583px;stroke-linecap:butt;stroke-linejoin:miter;stroke-opacity:1;opacity:0.75"
       d="M -15.182261,133.84985 -1.3098714,109.82217"
       id="path671" />
    <path
       style="fill:none;stroke:#000000;stroke-width:0.264583px;stroke-linecap:butt;stroke-linejoin:miter;stroke-opacity:1;opacity:0.75"
       d="m -1.3098714,109.82217 13.8926604,24.0628 13.87602,-24.03397 13.88035,24.04147 13.88965,-24.05759"
       id="path675" />
    <path
       style="fill:none;stroke:#000000;stroke-width:0.264583px;stroke-linecap:butt;stroke-linejoin:miter;stroke-opacity:1;opacity:0.75"
       d="M -1.3098714,109.82217 H 54.322919 l 13.87629,24.03443 h -83.410874"
       id="path677" />
    <path
       style="fill:none;stroke:#000000;stroke-width:0.264583px;stroke-linecap:butt;stroke-linejoin:miter;stroke-opacity:1;opacity:0.75"
       d="m -15.211667,133.8566 41.779386,47.99325 41.63149,-47.99325"
       id="path1390" />
    <path
       style="fill:none;stroke:#000000;stroke-width:0.264583px;stroke-linecap:butt;stroke-linejoin:miter;stroke-opacity:1;opacity:0.75"
       d="m 26.567719,181.84985 -13.98493,-47.96488 27.75637,0.007 z"
       id="path1392" />
    <path
       style="fill:#480000;fill-opacity:1;stroke-width:0.654947;opacity:0.75"
       d=""
       id="path5585"
       transform="matrix(0.26458333,0,0,0.26458333,-17.009468,101.37933)" />
    <path
       style="fill:#480000;fill-opacity:1;stroke-width:0.654947;opacity:0.75"
       d=""
       id="path5624"
       transform="matrix(0.26458333,0,0,0.26458333,-17.009468,101.37933)" />
    <path
       style="fill:#480000;fill-opacity:1;stroke-width:0.654947;opacity:0.75"
       d=""
       id="path5663"
       transform="matrix(0.26458333,0,0,0.26458333,-17.009468,101.37933)" />
    <path
       style="fill:#0d1c38;fill-opacity:1;stroke-width:0.654947;opacity:0.75"
       d="m 219.20562,120.3466 c 0.51222,-0.8105 11.93322,-20.557166 25.38002,-43.881483 13.4468,-23.324317 24.63594,-42.407849 24.86475,-42.407849 0.22882,0 8.36732,13.775419 18.08558,30.612041 9.71825,16.836622 21.11564,36.583291 25.32754,43.881481 l 7.65798,13.26944 h -51.12358 -51.12358 z"
       id="path7131"
       transform="matrix(0.26458333,0,0,0.26458333,-17.009468,101.37933)" />
    <path
       style="fill:#1a2667;fill-opacity:1;stroke-width:0.654947;opacity:0.75"
       d="m 167.48271,298.0011 c 0.16259,-0.90055 11.45454,-40.46757 25.09323,-87.9267 l 24.79761,-86.28933 h 51.36442 51.36442 l -4.21147,4.74837 c -2.31632,2.6116 -35.99352,41.4418 -74.83824,86.28933 -38.84471,44.84753 -71.35549,82.27778 -72.24616,83.17833 l -1.61941,1.63737 z"
       id="path7170"
       transform="matrix(0.26458333,0,0,0.26458333,-17.009468,101.37933)" />
    <path
       style="fill:#a0000d;fill-opacity:1;stroke-width:0.654947;opacity:0.75"
       d="m 138.72326,212.03924 c -14.09662,-48.35968 -25.55595,-88.00218 -25.46519,-88.09445 0.0908,-0.0923 23.13939,-0.0923 51.21916,0 l 51.05413,0.16776 -25.2423,87.92411 c -13.88326,48.35827 -25.39829,87.92529 -25.58894,87.9267 -0.19066,10e-4 -11.88024,-39.56443 -25.97686,-87.92412 z"
       id="path7320"
       transform="matrix(0.26458333,0,0,0.26458333,-17.009468,101.37933)" />
    <path
       style="fill:#3cb139;fill-opacity:1;stroke-width:0.654947;opacity:0.75"
       d="M 111.97968,242.24408 C 84.611864,210.80338 50.209082,171.28621 35.52906,154.42813 l -26.6909502,-30.65104 51.2452802,0.16773 51.24528,0.16773 25.39585,87.0767 c 13.96772,47.89219 25.31012,87.33389 25.20534,87.64823 -0.10478,0.31433 -22.58235,-25.1527 -49.95018,-56.5934 z"
       id="path7396"
       transform="matrix(0.26458333,0,0,0.26458333,-17.009468,101.37933)" />
    <path
       style="fill:#0f2649;fill-opacity:1;stroke-width:0.654947;opacity:0.75"
       d="M 191.54395,77.507991 C 177.69094,53.525512 166.25841,33.64336 166.13834,33.325429 c -0.12502,-0.331018 21.49711,-0.578056 50.59469,-0.578056 27.94716,0 50.81301,0.09961 50.81301,0.221345 0,0.187051 -50.36168,87.608892 -50.69845,88.006432 -0.064,0.0755 -11.45063,-19.48468 -25.30364,-43.467159 z"
       id="path7546"
       transform="matrix(0.26458333,0,0,0.26458333,-17.009468,101.37933)" />
    <path
       style="fill:#7a0005;fill-opacity:1;stroke-width:0.654947;opacity:0.75"
       d="m 114.37137,120.3466 c 1.92029,-3.60912 49.20173,-85.359941 49.62726,-85.80679 0.26181,-0.274934 11.06753,17.837864 24.01271,40.250662 12.94518,22.412798 24.35315,42.163368 25.35105,43.890148 l 1.81435,3.13961 H 164.38202 113.5873 Z"
       id="path8678"
       transform="matrix(0.26458333,0,0,0.26458333,-17.009468,101.37933)" />
    <path
       style="fill:#3c6b39;fill-opacity:1;stroke-width:0.654947;opacity:0.75"
       d="M 86.499002,77.211438 C 72.550544,53.05103 61.26061,33.160983 61.410261,33.011333 c 0.14965,-0.149651 23.002161,-0.196581 50.783359,-0.104289 l 50.51126,0.167803 -13.62513,23.578109 c -7.49383,12.96796 -18.93396,32.782496 -25.42253,44.032304 l -11.79738,20.45419 z"
       id="path9346"
       transform="matrix(0.26458333,0,0,0.26458333,-17.009468,101.37933)" />
    <path
       style="fill:#3c8139;fill-opacity:1;stroke-width:0.654947;opacity:0.75"
       d="M 8.9509487,121.18112 C 9.3901366,119.89541 58.955473,34.109576 59.272746,34.086027 c 0.18011,-0.01337 8.874538,14.780492 19.32095,32.875245 10.446412,18.094753 21.846254,37.840418 25.332984,43.879258 l 6.33951,10.9797 H 59.499413 c -32.718405,0 -50.6891654,-0.22722 -50.5484643,-0.63911 z"
       id="path9866"
       transform="matrix(0.26458333,0,0,0.26458333,-17.009468,101.37933)" />
  </g>
</svg>
